<svg xmlns="http://www.w3.org/2000/svg" xmlns:xlink="http://www.w3.org/1999/xlink" viewBox="0 0 55.4 63.31"><defs><style>.cls-1{fill:url(#linear-gradient);}</style><linearGradient id="linear-gradient" x1="27.7" x2="27.7" y2="63.31" gradientUnits="userSpaceOnUse"><stop offset="0" stop-color="#ff15ec"/><stop offset="0.05" stop-color="#f113e6"/><stop offset="0.21" stop-color="#c40dd4"/><stop offset="0.37" stop-color="#9e09c5"/><stop offset="0.53" stop-color="#8105b9"/><stop offset="0.69" stop-color="#6d02b1"/><stop offset="0.85" stop-color="#6001ac"/><stop offset="1" stop-color="#5c00aa"/></linearGradient></defs><title>add</title><g id="Layer_2" data-name="Layer 2"><g id="Layer_1-2" data-name="Layer 1"><path class="cls-1" d="M41.55,36.11v3a1.49,1.49,0,0,1-1.49,1.49H30.67V50a1.49,1.49,0,0,1-1.49,1.48h-3A1.49,1.49,0,0,1,24.73,50v-9.4h-9.4a1.49,1.49,0,0,1-1.48-1.49v-3a1.49,1.49,0,0,1,1.48-1.49h9.4v-9.4a1.49,1.49,0,0,1,1.48-1.48h3a1.49,1.49,0,0,1,1.49,1.48v9.4h9.39A1.49,1.49,0,0,1,41.55,36.11ZM55.4,13.85V57.37a5.94,5.94,0,0,1-5.94,5.94H5.94A5.94,5.94,0,0,1,0,57.37V13.85A5.94,5.94,0,0,1,5.94,7.91h5.93V1.48A1.49,1.49,0,0,1,13.35,0h5a1.48,1.48,0,0,1,1.48,1.48V7.91H35.61V1.48A1.49,1.49,0,0,1,37.1,0H42a1.49,1.49,0,0,1,1.49,1.48V7.91h5.93A5.94,5.94,0,0,1,55.4,13.85ZM49.46,56.63V19.78H5.94V56.63a.74.74,0,0,0,.74.74h42A.74.74,0,0,0,49.46,56.63Z"/></g></g></svg>