<svg xmlns="http://www.w3.org/2000/svg" viewBox="0 0 117.49 124.88"><defs><style>.cls-1{fill:#fff;}</style></defs><title>loading</title><g id="Layer_2" data-name="Layer 2"><g id="Layer_1-2" data-name="Layer 1"><path class="cls-1" d="M78.84,18.33a49.61,49.61,0,0,0-28.75-2.12A50.63,50.63,0,0,0,24.57,30.68,51.5,51.5,0,0,0,11.19,57.34a52.14,52.14,0,0,0,3.75,30.08,53.12,53.12,0,0,0,20.17,23.31A54.11,54.11,0,0,0,65.32,119a55.21,55.21,0,0,0,50-35.61,1.12,1.12,0,0,1,1.45-.65,1.14,1.14,0,0,1,.67,1.4,58.76,58.76,0,0,1-19.55,28A59.79,59.79,0,0,1,65.63,124.7a60.64,60.64,0,0,1-34.29-7.6A61.34,61.34,0,0,1,6.71,91.36,62.19,62.19,0,0,1,.46,55.78,63.25,63.25,0,0,1,15.23,22.27,64.12,64.12,0,0,1,46.56,2.37a64.82,64.82,0,0,1,37.61.88l.08,0a8,8,0,0,1-5,15.2Z"/></g></g></svg>