<svg xmlns="http://www.w3.org/2000/svg" xmlns:xlink="http://www.w3.org/1999/xlink" viewBox="0 0 66.67 50.8"><defs><style>.cls-1{fill:url(#linear-gradient);}</style><linearGradient id="linear-gradient" x1="33.33" y1="5.29" x2="33.33" y2="49.65" gradientUnits="userSpaceOnUse"><stop offset="0" stop-color="#ff15ec"/><stop offset="0.05" stop-color="#f113e6"/><stop offset="0.21" stop-color="#c40dd4"/><stop offset="0.37" stop-color="#9e09c5"/><stop offset="0.53" stop-color="#8105b9"/><stop offset="0.69" stop-color="#6d02b1"/><stop offset="0.85" stop-color="#6001ac"/><stop offset="1" stop-color="#5c00aa"/></linearGradient></defs><title>logout</title><g id="Layer_2" data-name="Layer 2"><g id="Layer_1-2" data-name="Layer 1"><path class="cls-1" d="M65.74,27.65,43.52,49.87a3.18,3.18,0,0,1-5.42-2.25V34.93h-18a3.18,3.18,0,0,1-3.18-3.18V19.05a3.17,3.17,0,0,1,3.18-3.17h18V3.18A3.18,3.18,0,0,1,43.52.93L65.74,23.15A3.21,3.21,0,0,1,65.74,27.65ZM25.4,49.21V43.92a1.6,1.6,0,0,0-1.59-1.59H12.7A4.23,4.23,0,0,1,8.47,38.1V12.7A4.23,4.23,0,0,1,12.7,8.47H23.81A1.6,1.6,0,0,0,25.4,6.88V1.59A1.6,1.6,0,0,0,23.81,0H12.7A12.71,12.71,0,0,0,0,12.7V38.1A12.71,12.71,0,0,0,12.7,50.8H23.81A1.6,1.6,0,0,0,25.4,49.21Z"/></g></g></svg>