<svg xmlns="http://www.w3.org/2000/svg" xmlns:xlink="http://www.w3.org/1999/xlink" viewBox="0 0 61.12 63.85"><defs><style>.cls-1{fill:url(#linear-gradient);}</style><linearGradient id="linear-gradient" x1="30.56" y1="6.14" x2="30.56" y2="59.57" gradientUnits="userSpaceOnUse"><stop offset="0" stop-color="#ff15ec"/><stop offset="0.05" stop-color="#f113e6"/><stop offset="0.21" stop-color="#c40dd4"/><stop offset="0.37" stop-color="#9e09c5"/><stop offset="0.53" stop-color="#8105b9"/><stop offset="0.69" stop-color="#6d02b1"/><stop offset="0.85" stop-color="#6001ac"/><stop offset="1" stop-color="#5c00aa"/></linearGradient></defs><title>settings</title><g id="Layer_2" data-name="Layer 2"><g id="Layer_1-2" data-name="Layer 1"><path class="cls-1" d="M60.34,39.6l-5.48-3.17a25,25,0,0,0,0-9l5.48-3.16a1.56,1.56,0,0,0,.71-1.81,32.06,32.06,0,0,0-7-12.17A1.55,1.55,0,0,0,52.1,10l-5.48,3.17A24.25,24.25,0,0,0,38.79,8.6V2.28A1.55,1.55,0,0,0,37.58.77a32.48,32.48,0,0,0-14,0,1.55,1.55,0,0,0-1.21,1.51V8.61a25.14,25.14,0,0,0-7.83,4.52L9,10a1.54,1.54,0,0,0-1.91.3,31.87,31.87,0,0,0-7,12.18,1.54,1.54,0,0,0,.71,1.8l5.48,3.17a24.92,24.92,0,0,0,0,9L.78,39.61a1.56,1.56,0,0,0-.71,1.8,32.1,32.1,0,0,0,7,12.18,1.55,1.55,0,0,0,1.91.3l5.48-3.17a24.54,24.54,0,0,0,7.83,4.52v6.33a1.55,1.55,0,0,0,1.21,1.51,32.52,32.52,0,0,0,14.06,0,1.56,1.56,0,0,0,1.21-1.51V55.24a25.09,25.09,0,0,0,7.82-4.52l5.49,3.17a1.52,1.52,0,0,0,1.9-.3,31.87,31.87,0,0,0,7-12.18A1.57,1.57,0,0,0,60.34,39.6ZM30.55,42.21a10.3,10.3,0,1,1,10.3-10.3A10.31,10.31,0,0,1,30.55,42.21Z"/></g></g></svg>