<svg xmlns="http://www.w3.org/2000/svg" viewBox="0 0 12.18 13.92"><defs><style>.cls-1{fill:#6e00bc;}</style></defs><title>drop</title><g id="Layer_2" data-name="Layer 2"><g id="Layer_2-2" data-name="Layer 2"><path class="cls-1" d="M.87,12.61a1.31,1.31,0,0,0,1.3,1.31H10a1.31,1.31,0,0,0,1.31-1.31h0V3.48H.87Zm7.39-7a.44.44,0,0,1,.44-.43.43.43,0,0,1,.43.43v6.09a.44.44,0,0,1-.43.44.44.44,0,0,1-.44-.44Zm-2.61,0a.44.44,0,0,1,.44-.43.43.43,0,0,1,.43.43v6.09a.44.44,0,0,1-.43.44.44.44,0,0,1-.44-.44ZM3,5.65a.44.44,0,0,1,.44-.43.43.43,0,0,1,.43.43v6.09a.44.44,0,0,1-.43.44A.44.44,0,0,1,3,11.74ZM11.74.87H8.48L8.23.36A.66.66,0,0,0,7.64,0H4.53A.66.66,0,0,0,4,.36L3.7.87H.43A.43.43,0,0,0,0,1.3v.87a.44.44,0,0,0,.43.44H11.74a.44.44,0,0,0,.44-.44V1.3A.44.44,0,0,0,11.74.87Z"/></g></g></svg>