<svg xmlns="http://www.w3.org/2000/svg" xmlns:xlink="http://www.w3.org/1999/xlink" viewBox="0 0 63.32 63.32"><defs><style>.cls-1{fill:url(#linear-gradient);}</style><linearGradient id="linear-gradient" x1="31.66" x2="31.66" y2="63.32" gradientUnits="userSpaceOnUse"><stop offset="0" stop-color="#ff15ec"/><stop offset="0.05" stop-color="#f113e6"/><stop offset="0.21" stop-color="#c40dd4"/><stop offset="0.37" stop-color="#9e09c5"/><stop offset="0.53" stop-color="#8105b9"/><stop offset="0.69" stop-color="#6d02b1"/><stop offset="0.85" stop-color="#6001ac"/><stop offset="1" stop-color="#5c00aa"/></linearGradient></defs><title>help</title><g id="Layer_2" data-name="Layer 2"><g id="Layer_1-2" data-name="Layer 1"><path class="cls-1" d="M31.66,0A31.66,31.66,0,1,0,63.32,31.66,31.66,31.66,0,0,0,31.66,0Zm0,57.19A25.53,25.53,0,1,1,57.19,31.66,25.52,25.52,0,0,1,31.66,57.19ZM45.35,24.61c0,8.56-9.25,8.69-9.25,11.86v.8a1.53,1.53,0,0,1-1.53,1.54H28.74a1.54,1.54,0,0,1-1.53-1.54v-1.1c0-4.56,3.46-6.39,6.08-7.85,2.24-1.26,3.61-2.12,3.61-3.78,0-2.2-2.81-3.66-5.08-3.66-3,0-4.32,1.4-6.24,3.82a1.52,1.52,0,0,1-2.13.27L19.9,22.28a1.53,1.53,0,0,1-.34-2.09c3-4.43,6.86-6.91,12.84-6.91C38.66,13.28,45.35,18.17,45.35,24.61ZM37,46a5.36,5.36,0,1,1-5.36-5.36A5.38,5.38,0,0,1,37,46Z"/></g></g></svg>