<svg xmlns="http://www.w3.org/2000/svg" xmlns:xlink="http://www.w3.org/1999/xlink" viewBox="0 0 63.74 63.75"><defs><style>.cls-1{fill:url(#linear-gradient);}</style><linearGradient id="linear-gradient" x1="31.87" x2="31.87" y2="63.75" gradientUnits="userSpaceOnUse"><stop offset="0" stop-color="#ff15ec"/><stop offset="0.05" stop-color="#f113e6"/><stop offset="0.21" stop-color="#c40dd4"/><stop offset="0.37" stop-color="#9e09c5"/><stop offset="0.53" stop-color="#8105b9"/><stop offset="0.69" stop-color="#6d02b1"/><stop offset="0.85" stop-color="#6001ac"/><stop offset="1" stop-color="#5c00aa"/></linearGradient></defs><title>search</title><g id="Layer_2" data-name="Layer 2"><g id="Layer_1-2" data-name="Layer 1"><path class="cls-1" d="M62.87,55.12,50.46,42.7a3,3,0,0,0-2.12-.87h-2a25.89,25.89,0,1,0-4.48,4.48v2a3,3,0,0,0,.87,2.12L55.12,62.87a3,3,0,0,0,4.22,0l3.52-3.52A3,3,0,0,0,62.87,55.12Zm-37-13.29A15.94,15.94,0,1,1,41.83,25.9,15.92,15.92,0,0,1,25.9,41.83Z"/></g></g></svg>