<svg xmlns="http://www.w3.org/2000/svg" viewBox="0 0 599.71 437.82"><defs><style>.cls-1{fill:#fff;}.cls-2{fill:#4f38f9;}.cls-2,.cls-5{fill-rule:evenodd;}.cls-3{fill:#00118e;}.cls-4{fill:#afafaf;}.cls-5,.cls-7{fill:red;}.cls-6{fill:#8e0000;}.cls-8{fill:#69d4ed;}</style></defs><title>logo1</title><g id="Layer_2" data-name="Layer 2"><g id="Layer_1-2" data-name="Layer 1"><path class="cls-1" d="M151.22,138.8l268.33.52-.24,118.79s-3.5,10.52-6.54,14-13.92,9.24-15.09,9.35-221.2,0-221.2,0-14.27-4.44-18.36-9.58-6.66-15.79-6.66-15.79Z"/><path class="cls-2" d="M150.87,138.71l268.18.26.58-27.24s1.4-8-7.13-15.2-16.14-9.47-16.14-9.47l-218.75-.82s-13.21,2.34-16.83,6.32-9.06,16.89-9.06,16.89Z"/><path class="cls-3" d="M391.69,88.14a25.82,25.82,0,0,1,25.78,25.78v140a25.81,25.81,0,0,1-25.78,25.78H178.78A25.81,25.81,0,0,1,153,253.87V113.92a25.82,25.82,0,0,1,25.78-25.78H391.69m0-3.51H178.78a29.3,29.3,0,0,0-29.29,29.29v140a29.29,29.29,0,0,0,29.29,29.29H391.69A29.28,29.28,0,0,0,421,253.87V113.92a29.29,29.29,0,0,0-29.28-29.29Z"/><rect class="cls-3" x="150.55" y="137.25" width="269.37" height="3.51"/><rect class="cls-4" x="181.3" y="160.92" width="25.58" height="25.58"/><rect class="cls-4" x="226.87" y="160.92" width="25.58" height="25.58"/><rect class="cls-4" x="272.44" y="160.92" width="25.58" height="25.58"/><rect class="cls-4" x="318.01" y="160.92" width="25.58" height="25.58"/><rect class="cls-4" x="363.58" y="160.92" width="25.58" height="25.58"/><rect class="cls-4" x="181.3" y="197.06" width="25.58" height="25.58"/><rect class="cls-4" x="226.87" y="197.06" width="25.58" height="25.58"/><rect class="cls-4" x="272.44" y="197.06" width="25.58" height="25.58"/><rect class="cls-4" x="318.01" y="197.06" width="25.58" height="25.58"/><rect class="cls-4" x="226.87" y="233.2" width="25.58" height="25.58"/><rect class="cls-4" x="272.44" y="233.2" width="25.58" height="25.58"/><rect class="cls-4" x="318.01" y="233.2" width="25.58" height="25.58"/><rect class="cls-4" x="363.58" y="233.2" width="25.58" height="25.58"/><path class="cls-5" d="M364.82,211.26a8.37,8.37,0,1,1,11.84-11.84h.06a8.37,8.37,0,0,1,11.84,11.84l0,0-11.84,11.84-11.84-11.84Z"/><path class="cls-5" d="M182.11,247.36A8.37,8.37,0,1,1,194,235.52H194a8.37,8.37,0,1,1,11.84,11.84l0,0L194,259.23l-11.84-11.84Z"/><path class="cls-5" d="M285.13,79.87S285.48,16,335.63,5s67.61,13.67,67.61,13.67,5.61,5.62,4,11.4-7.19,12.81-13.15,14.82-12.54,4.65-12.54,4.65-18.94,4.74-30.69,9.38-41,17-41,17l-15,7.37S320.9,73,343,72.91,374.8,79,374.8,79s5.82,2.68,7.92,7a66.8,66.8,0,0,1,3.33,8.12l2.72,13.32s3.51,8.25,5.7,9.83,11.31,7.62,11.31,7.62l-12.8.27,2.89,13s-10.31-4.38-14.76-12.1-4.44-18-7.3-24.31-10.38-9.88-10.38-9.88-17.62-7.55-32.09-8.25-24.29-.46-24.29-.46L289.63,85l-9.15-.23s-24.38-3-41-1-32.77,7.07-36.39,10.35-8.18,7.77-8.71,14.32-4,17.94-6,19.29-5.26,6-6.37,6.37-7.25,4.09-7.25,4.09l2.51-12.57-12.57-.76s13.45-7.13,15.67-14.61,4-21.16,10-27.07,14.74-8.59,20.76-9.58,21-.82,24-.59,19.37,3.26,22.61,4.49,12.58,4.25,14.43,4.82l3.5,1.1L242.6,67.68l-25.52-9.82S206.32,54.73,204,53.92s-10-2.69-16-4.68S170.9,43,169.5,40.53,162.42,34,163,28.25s8.36-16.25,14.5-18.18,17.27-8.24,30.34-8.33,25,1.4,38.4,6.93,22.45,17.89,22.45,17.89,8.77,13,12.1,24.9S285.13,79.87,285.13,79.87Zm37.64-46c-3.1,1.7-9.35,8.25-12.33,11.4s-12.07,17.13-12.07,17.13L288.25,80.31l9.5-7.48,16.78-12.66s14.38-9.24,18.24-11.57a40.35,40.35,0,0,1,9.53-3.72l13.37-5.56s8.55-4.87,9.78-6,2.45-3.64,1.88-5.22-3.68-2.41-7.06-2.94-13.5.14-19.55,1.41a74.16,74.16,0,0,0-10.46,3S325.87,32.17,322.77,33.86ZM282.06,80.31l-7.68-14.47s-8.63-13.72-10.83-16.35-13.59-16-19.29-18-19.11-7.72-30.6-6.67-10.43,3.42-10.43,3.42-2,2.72,5,7,21.31,9.64,25.52,11.66a91.85,91.85,0,0,1,9.53,5.26c1.7,1.11,13.56,8.71,13.56,8.71l13,9.65Z"/><path class="cls-6" d="M287.35,86.66l-6.22-5.08c-.35-.29-35.06-28.58-51-34.26-28.16-10-28.78-15.64-29-17.48a4.55,4.55,0,0,1,2.43-4.44c7.14-4.52,30.13-2.31,43.85,6.15,18.26,11.26,35.63,46.41,36.36,47.9Zm-72.11-60c-4.39,0-7.93.6-9.76,1.76-.87.55-.83.94-.81,1.08.1.88,1.84,5.7,26.68,14.57C243.62,48.4,265.7,65,276.74,73.6c-6.16-11-18.66-31.38-31.12-39.06C236.86,29.13,224.26,26.61,215.24,26.61Z"/><path class="cls-6" d="M397.74,140.89l-3.06-1.44c-16.05-7.54-17.89-17.59-19.51-26.46S372.11,96.23,357,90.88c-31-10.94-67-4-67.35-3.91l-.69-3.44c.31-.06,2.09-.41,5-.81l-.32-.66C294,81.84,335.3,60,378.49,48.59,394.41,44.4,404,38,405.42,30.65c1-5.19-2-10.76-8.58-15.69-15.92-12-47.85-17-75.68-2.74C286.79,29.85,287,79.58,287,80.08l0,2.53-3.72-1.34V80c0-.5.26-50.22-34.12-67.86C221.43-2.12,189.5,2.92,173.58,14.9,167,19.83,164,25.41,165,30.59c1.45,7.38,11,13.75,26.92,18,43.19,11.37,84.5,33.25,84.91,33.47l-.32.65c2.9.4,4.67.75,5,.81l-.68,3.44c-.36-.07-36.39-7-67.35,3.91-15.16,5.35-16.58,13.11-18.22,22.11s-3.46,18.92-19.5,26.46l-3.07,1.44L175.14,127l-17.59-.82,6.41-3c14.41-6.77,15.93-15.1,17.54-23.92,1.69-9.22,3.43-18.76,20.5-24.78,16.41-5.8,35.13-3.9,49.73-.55-15.89-7.08-38-16-60.7-21.94-22.15-5.84-28.26-14.46-29.47-20.66-1.3-6.58,2.22-13.39,9.91-19.17C188.24-.53,221.76-5.89,250.85,9c15.07,7.73,26.08,22.49,31.84,42.68a108.78,108.78,0,0,1,2.52,11,110.42,110.42,0,0,1,2.51-10.94c5.76-20.19,16.77-34.95,31.84-42.68C348.65-5.83,382.18-.47,399,12.16c7.68,5.78,11.2,12.59,9.91,19.17-1.22,6.2-7.32,14.82-29.47,20.66-22.68,6-44.83,14.86-60.71,21.94,14.6-3.35,33.32-5.25,49.73.55,17.07,6,18.82,15.56,20.5,24.78,1.61,8.82,3.14,17.15,17.55,23.92l6.4,3-17.58.82Zm-81.1-59.74c12.37,0,27.31,1.42,41.49,6.42,17.07,6,18.81,15.56,20.49,24.78,1.49,8.15,2.9,15.88,14.46,22.34l-1.95-11,8.28-.38c-11-7.08-12.54-15.7-14-23.42-1.64-9-3.06-16.76-18.21-22.11-21.72-7.66-48.48-.91-62.51,3.8C308.3,81.33,312.31,81.15,316.64,81.15ZM171,123.25l8.29.38-2,11c11.56-6.46,13-14.19,14.46-22.33,1.69-9.23,3.43-18.76,20.5-24.79,19.13-6.75,39.67-7,53.37-6-14-4.7-40.8-11.45-62.49-3.8C188,83.07,186.6,90.84,185,99.83,183.54,107.55,182,116.17,171,123.25Z"/><path class="cls-6" d="M283.06,86.72l3.54-7.21c.73-1.49,18.09-36.64,36.35-47.9,13.72-8.46,36.71-10.67,43.86-6.15a4.54,4.54,0,0,1,2.42,4.44c-.2,1.84-.82,7.42-29,17.48-15.89,5.68-50.61,34-51,34.26Zm72.11-60c-9,0-21.61,2.52-30.38,7.93-12.46,7.68-25,28-31.12,39.06,11-8.64,33.12-25.2,45.39-29.58,24.84-8.87,26.59-13.69,26.69-14.57,0-.14.05-.53-.82-1.09C363.1,27.26,359.56,26.67,355.17,26.67Z"/><ellipse class="cls-7" cx="285.59" cy="80.66" rx="13.97" ry="4.47"/><path class="cls-6" d="M285.59,86.89c-7.82,0-15.72-1.93-15.72-6.23s7.9-6.23,15.72-6.23,15.73,1.93,15.73,6.23S293.42,86.89,285.59,86.89ZM273.4,80.66c.55.84,4.64,2.72,12.19,2.72s11.65-1.88,12.19-2.72c-.54-.84-4.63-2.72-12.19-2.72S274,79.82,273.4,80.66Z"/><path class="cls-8" d="M53.11,327.37a5.16,5.16,0,0,1,3.17-2.46,19,19,0,0,1,5.63-.7,19.9,19.9,0,0,1,5.39.58,9.45,9.45,0,0,1,3,1.41A5.32,5.32,0,0,1,72,328.55a23.3,23.3,0,0,1,.59,6.09v65.07a33.37,33.37,0,0,1-.18,4.05,9.63,9.63,0,0,1-1.11,3.11Q69.64,410,62.14,410q-8.2,0-9.61-4.34a19.47,19.47,0,0,1-.71-6.09V375.8H20.75v23.91a36.11,36.11,0,0,1-.17,4.05,9.44,9.44,0,0,1-1.12,3.11Q17.83,410,10.32,410q-8.21,0-9.62-4.34A19.53,19.53,0,0,1,0,399.6V334.53a33.37,33.37,0,0,1,.18-4,9.17,9.17,0,0,1,1.11-3.11q1.63-3.17,9.15-3.16,8.21,0,9.73,4.34a23.39,23.39,0,0,1,.58,6.09v23.92H51.82v-24a33.37,33.37,0,0,1,.18-4A9.63,9.63,0,0,1,53.11,327.37Z"/><path class="cls-8" d="M122.05,354.93q.7-6.57,9.27-6.57a24.72,24.72,0,0,1,6.8.7,4.89,4.89,0,0,1,3.1,2.47,10.08,10.08,0,0,1,1.06,3.1,33.83,33.83,0,0,1,.17,4.05v41a33.83,33.83,0,0,1-.17,4.05,11,11,0,0,1-1,3.11q-1.64,3-8,3.05t-8.56-1.59a6.33,6.33,0,0,1-2.52-4.63q-4.33,6.23-14.48,6.22t-18.82-9.27a30.88,30.88,0,0,1,.06-43q8.73-9.19,19.17-9.2a18.23,18.23,0,0,1,7.27,1.41,12.93,12.93,0,0,1,6.68,5Zm-21.34,24.38a9.75,9.75,0,0,0,3.05,7,10,10,0,0,0,7.39,3.11,9.34,9.34,0,0,0,7.21-3.17,10.17,10.17,0,0,0,2.87-7,10.88,10.88,0,0,0-2.75-7.1,9.15,9.15,0,0,0-7.39-3.28,9.47,9.47,0,0,0-7.5,3.28A10.63,10.63,0,0,0,100.71,379.31Z"/><path class="cls-8" d="M151.83,426.92V358.44a31.73,31.73,0,0,1,.18-4,9.6,9.6,0,0,1,1-2.93q1.63-3.16,7.85-3.17c4.14,0,6.94.53,8.38,1.58a6.36,6.36,0,0,1,2.53,4.64q4.46-6.1,14-6.1t18.11,9a30.08,30.08,0,0,1,.06,42q-8.5,9-18.11,9t-14-5.39V426.8a34.52,34.52,0,0,1-.17,4,9.66,9.66,0,0,1-1.06,3,4.92,4.92,0,0,1-3,2.4,18.76,18.76,0,0,1-5.74.7,19.39,19.39,0,0,1-5.81-.7,5,5,0,0,1-3.05-2.35A9.08,9.08,0,0,1,152,430.9,31.73,31.73,0,0,1,151.83,426.92Zm23.22-55.23a10.45,10.45,0,0,0-2.7,6.92,10.1,10.1,0,0,0,2.76,6.86,9,9,0,0,0,7,3.11,9.81,9.81,0,0,0,7.27-3.05,9.64,9.64,0,0,0,3-6.92,10.18,10.18,0,0,0-2.81-7,9.43,9.43,0,0,0-7.33-3.1A9,9,0,0,0,175.05,371.69Z"/><path class="cls-8" d="M220.07,426.92V358.44a31.73,31.73,0,0,1,.18-4,9.28,9.28,0,0,1,1-2.93q1.63-3.16,7.86-3.17t8.38,1.58a6.32,6.32,0,0,1,2.52,4.64q4.45-6.1,14-6.1t18.12,9a30.08,30.08,0,0,1,.06,42q-8.51,9-18.12,9t-13.95-5.39V426.8a31.91,31.91,0,0,1-.18,4,9.6,9.6,0,0,1-1.05,3,5,5,0,0,1-3,2.4,18.83,18.83,0,0,1-5.75.7,19.37,19.37,0,0,1-5.8-.7,5,5,0,0,1-3-2.35,8.63,8.63,0,0,1-1.05-2.93A31.73,31.73,0,0,1,220.07,426.92Zm23.21-55.23a10.48,10.48,0,0,0-2.69,6.92,10.14,10.14,0,0,0,2.75,6.86,9,9,0,0,0,7,3.11,9.83,9.83,0,0,0,7.27-3.05,9.64,9.64,0,0,0,3-6.92,10.14,10.14,0,0,0-2.82-7,9.41,9.41,0,0,0-7.32-3.1A9,9,0,0,0,243.28,371.69Z"/><path class="cls-8" d="M342.24,349.06q6.92,3.06,6.92,7.39a8.87,8.87,0,0,1-.94,4,18.39,18.39,0,0,0-.94,2l-30.72,68.71a37.43,37.43,0,0,1-1.58,3.4,7.28,7.28,0,0,1-2.05,2.23,5.72,5.72,0,0,1-3.52,1.05,17.67,17.67,0,0,1-6.21-1.76q-6.93-3-6.92-7.27,0-2.81,11.26-26.85L284.2,362.66c-1.56-2.57-2.34-4.49-2.34-5.74q0-3.75,6.33-7.5,4-2.35,6.21-2.35A6.41,6.41,0,0,1,298,348a7.12,7.12,0,0,1,2,1.93q.65,1,6.45,10.91t11.08,18.46q.58-1.87,6.33-14.48t6.15-13.42a12.51,12.51,0,0,1,1.35-2,5.09,5.09,0,0,1,4.28-2A16.77,16.77,0,0,1,342.24,349.06Z"/><path class="cls-8" d="M395.7,324.09l21.69.12q17,0,29.9,12.25a39.93,39.93,0,0,1,12.9,30.13,42.09,42.09,0,0,1-12.61,30.66A41.3,41.3,0,0,1,417,410H395.59c-4.77,0-7.74-1-8.92-2.93q-1.4-2.46-1.4-7.5V334.41a36,36,0,0,1,.17-4.11,9.46,9.46,0,0,1,1.12-3Q388.19,324.09,395.7,324.09ZM432.64,383a20.56,20.56,0,0,0,6.8-15.77,21.18,21.18,0,0,0-6.63-15.89A21.64,21.64,0,0,0,417.28,345H406v44.32h11.37A22,22,0,0,0,432.64,383Z"/><path class="cls-8" d="M507.91,354.93q.7-6.57,9.26-6.57a24.67,24.67,0,0,1,6.8.7,4.94,4.94,0,0,1,3.11,2.47,10,10,0,0,1,1,3.1,33.37,33.37,0,0,1,.18,4.05v41a33.37,33.37,0,0,1-.18,4.05,10.9,10.9,0,0,1-1,3.11q-1.65,3-8,3.05t-8.55-1.59A6.29,6.29,0,0,1,508,403.7q-4.35,6.23-14.48,6.22t-18.82-9.27a30.85,30.85,0,0,1,.06-43q8.73-9.19,19.17-9.2a18.22,18.22,0,0,1,7.26,1.41,16,16,0,0,1,4.58,2.63A16.52,16.52,0,0,1,507.91,354.93Zm-21.34,24.38a9.71,9.71,0,0,0,3.05,7A10,10,0,0,0,497,389.4a9.33,9.33,0,0,0,7.21-3.17,10.13,10.13,0,0,0,2.88-7,10.84,10.84,0,0,0-2.76-7.1,9.15,9.15,0,0,0-7.38-3.28,9.51,9.51,0,0,0-7.51,3.28A10.62,10.62,0,0,0,486.57,379.31Z"/><path class="cls-8" d="M592.8,349.06q6.91,3.06,6.91,7.39a8.86,8.86,0,0,1-.93,4,18.39,18.39,0,0,0-.94,2l-30.72,68.71c-.63,1.48-1.15,2.62-1.58,3.4a7.32,7.32,0,0,1-2.06,2.23,5.69,5.69,0,0,1-3.51,1.05,17.76,17.76,0,0,1-6.22-1.76q-6.91-3-6.91-7.27,0-2.81,11.25-26.85l-23.33-39.28c-1.57-2.57-2.35-4.49-2.35-5.74q0-3.75,6.34-7.5,4-2.35,6.21-2.35a6.37,6.37,0,0,1,3.63.94,7.18,7.18,0,0,1,2.06,1.93q.63,1,6.44,10.91t11.08,18.46q.58-1.87,6.34-14.48t6.15-13.42a11.28,11.28,0,0,1,1.35-2,5.07,5.07,0,0,1,4.28-2A16.85,16.85,0,0,1,592.8,349.06Z"/></g></g></svg>