<svg xmlns="http://www.w3.org/2000/svg" viewBox="0 0 69.29 69.29"><defs><style>.cls-1{fill:#34b9e2;}.cls-2,.cls-9{fill:#fff;}.cls-3{fill:#4f38f9;}.cls-3,.cls-6{fill-rule:evenodd;}.cls-4{fill:#00118e;}.cls-5{fill:#afafaf;}.cls-6,.cls-8{fill:red;}.cls-7{fill:#8e0000;}.cls-9{font-size:10.58px;font-family:FredokaOne-Regular, Fredoka One;}.cls-10{letter-spacing:-0.03em;}.cls-11{letter-spacing:-0.02em;}</style></defs><title>logo2</title><g id="Layer_2" data-name="Layer 2"><g id="Layer_2-2" data-name="Layer 2"><circle class="cls-1" cx="34.64" cy="34.64" r="34.64"/><path class="cls-2" d="M17.8,26.25l33.72.06,0,14.93A7.58,7.58,0,0,1,50.67,43a7,7,0,0,1-1.9,1.18H21A6.44,6.44,0,0,1,18.67,43a6.54,6.54,0,0,1-.84-2Z"/><path class="cls-3" d="M17.76,26.24l33.7,0,.07-3.42a2.17,2.17,0,0,0-.89-1.91,6.27,6.27,0,0,0-2-1.19l-27.49-.11a5.44,5.44,0,0,0-2.12.8,11.42,11.42,0,0,0-1.13,2.12Z"/><path class="cls-4" d="M48,19.88a3.25,3.25,0,0,1,3.24,3.24V40.71A3.25,3.25,0,0,1,48,44H21.27A3.25,3.25,0,0,1,18,40.71V23.12a3.25,3.25,0,0,1,3.24-3.24H48m0-.44H21.27a3.68,3.68,0,0,0-3.68,3.68V40.71a3.68,3.68,0,0,0,3.68,3.68H48a3.68,3.68,0,0,0,3.68-3.68V23.12A3.68,3.68,0,0,0,48,19.44Z"/><rect class="cls-4" x="17.72" y="26.05" width="33.85" height="0.44"/><rect class="cls-5" x="21.58" y="29.03" width="3.21" height="3.21"/><rect class="cls-5" x="27.31" y="29.03" width="3.21" height="3.21"/><rect class="cls-5" x="33.04" y="29.03" width="3.21" height="3.21"/><rect class="cls-5" x="38.76" y="29.03" width="3.21" height="3.21"/><rect class="cls-5" x="44.49" y="29.03" width="3.21" height="3.21"/><rect class="cls-5" x="21.58" y="33.57" width="3.21" height="3.21"/><rect class="cls-5" x="27.31" y="33.57" width="3.21" height="3.21"/><rect class="cls-5" x="33.04" y="33.57" width="3.21" height="3.21"/><rect class="cls-5" x="38.76" y="33.57" width="3.21" height="3.21"/><rect class="cls-5" x="27.31" y="38.11" width="3.21" height="3.21"/><rect class="cls-5" x="33.04" y="38.11" width="3.21" height="3.21"/><rect class="cls-5" x="38.76" y="38.11" width="3.21" height="3.21"/><rect class="cls-5" x="44.49" y="38.11" width="3.21" height="3.21"/><path class="cls-6" d="M44.64,35.35a1.05,1.05,0,0,1,1.49-1.49h0a1.05,1.05,0,0,1,1.49,1.49h0l-1.48,1.48-1.49-1.48Z"/><path class="cls-6" d="M21.68,39.89a1.05,1.05,0,1,1,1.49-1.49h0a1.05,1.05,0,1,1,1.49,1.49h0l-1.48,1.49-1.49-1.49Z"/><path class="cls-6" d="M34.63,18.84s0-8,6.35-9.41,8.49,1.72,8.49,1.72A1.72,1.72,0,0,1,50,12.58a3,3,0,0,1-1.65,1.87c-.75.25-1.58.58-1.58.58a37.72,37.72,0,0,0-3.86,1.18c-1.47.58-5.15,2.14-5.15,2.14l-1.88.93a19.8,19.8,0,0,1,6-1.31,7.84,7.84,0,0,1,4,.76,2.34,2.34,0,0,1,1,.88,7.67,7.67,0,0,1,.42,1l.34,1.67a5,5,0,0,0,.72,1.24l1.42,1-1.61,0,.37,1.63a4.42,4.42,0,0,1-1.86-1.52c-.56-1-.56-2.26-.92-3.06a3,3,0,0,0-1.3-1.24,14.05,14.05,0,0,0-4-1c-1.82-.09-3.06-.06-3.06-.06l-2.18.24-1.15,0a26.73,26.73,0,0,0-5.16-.13,11.7,11.7,0,0,0-4.57,1.3,2.78,2.78,0,0,0-1.1,1.8,5.78,5.78,0,0,1-.75,2.42c-.24.17-.66.75-.8.8s-.91.52-.91.52l.32-1.58-1.58-.1s1.69-.89,2-1.84.5-2.65,1.26-3.4a5,5,0,0,1,2.61-1.2,19.93,19.93,0,0,1,3-.07,23,23,0,0,1,2.84.56c.41.15,1.58.53,1.81.61l.44.13-4.16-2-3.21-1.23-1.65-.5c-.29-.1-1.25-.34-2-.59A7.36,7.36,0,0,1,20.1,13.9c-.18-.31-.89-.82-.82-1.54a3.47,3.47,0,0,1,1.82-2.29A11.58,11.58,0,0,1,24.91,9a11.93,11.93,0,0,1,4.83.87,7.64,7.64,0,0,1,2.82,2.25,13,13,0,0,1,1.52,3.13A20.94,20.94,0,0,1,34.63,18.84Zm4.73-5.78a10.67,10.67,0,0,0-1.55,1.43c-.37.4-1.52,2.16-1.52,2.16L35,18.9l1.2-.94,2.1-1.59s1.81-1.16,2.3-1.46a5,5,0,0,1,1.19-.46l1.68-.7s1.08-.62,1.23-.76a.73.73,0,0,0,.24-.65c-.07-.2-.46-.31-.89-.37a9.69,9.69,0,0,0-2.45.17,9.16,9.16,0,0,0-1.32.38S39.75,12.85,39.36,13.06ZM34.24,18.9l-1-1.82S32.19,15.35,31.92,15a10.41,10.41,0,0,0-2.42-2.26,9.83,9.83,0,0,0-3.85-.84c-1.44.13-1.31.43-1.31.43s-.26.34.63.88a34.92,34.92,0,0,0,3.2,1.47,10.46,10.46,0,0,1,1.2.66l1.7,1.09,1.64,1.22Z"/><path class="cls-7" d="M34.91,19.7l-.78-.64c-.05,0-4.41-3.59-6.41-4.31-3.53-1.26-3.61-2-3.64-2.19a.58.58,0,0,1,.31-.56c.89-.57,3.78-.29,5.51.77,2.29,1.42,4.47,5.83,4.57,6Zm-9.06-7.55a2.52,2.52,0,0,0-1.23.22c-.11.07-.1.12-.1.14s.23.71,3.35,1.83a29.46,29.46,0,0,1,5.71,3.71c-.78-1.38-2.35-3.94-3.91-4.9A8,8,0,0,0,25.85,12.15Z"/><path class="cls-7" d="M48.78,26.51l-.38-.18A3.84,3.84,0,0,1,46,23a3,3,0,0,0-2.29-2.77,18.62,18.62,0,0,0-8.47-.5l-.08-.43.62-.1,0-.08a57.24,57.24,0,0,1,10.67-4.21c2-.52,3.2-1.33,3.39-2.25a2.13,2.13,0,0,0-1.08-2c-2-1.51-6-2.14-9.51-.35-4.32,2.22-4.29,8.47-4.29,8.53v.32L34.41,19v-.16c0-.06,0-6.31-4.29-8.53-3.49-1.79-7.51-1.16-9.51.35a2.13,2.13,0,0,0-1.08,2c.19.93,1.39,1.73,3.39,2.25a56.9,56.9,0,0,1,10.67,4.21l0,.08.62.1-.08.44a18.55,18.55,0,0,0-8.47.49A3,3,0,0,0,23.33,23a3.84,3.84,0,0,1-2.45,3.32l-.38.18.31-1.74-2.21-.1.8-.38a3.41,3.41,0,0,0,2.21-3,3.36,3.36,0,0,1,2.57-3.11,11.56,11.56,0,0,1,6.25-.07,51.82,51.82,0,0,0-7.62-2.76c-2.79-.73-3.56-1.82-3.71-2.59a2.5,2.5,0,0,1,1.25-2.41c2.1-1.59,6.32-2.26,10-.39a8.26,8.26,0,0,1,4,5.37,11.75,11.75,0,0,1,.32,1.38c.08-.43.18-.89.32-1.38A8.26,8.26,0,0,1,39,10c3.65-1.88,7.87-1.2,10,.38a2.52,2.52,0,0,1,1.25,2.41c-.15.78-.92,1.87-3.71,2.6a51.82,51.82,0,0,0-7.62,2.76,11.65,11.65,0,0,1,6.25.06,3.38,3.38,0,0,1,2.57,3.12,3.4,3.4,0,0,0,2.21,3l.8.38-2.21.11ZM38.59,19a15.86,15.86,0,0,1,5.21.81,3.37,3.37,0,0,1,2.58,3.11,3.34,3.34,0,0,0,1.82,2.81L48,24.35l1-.05a3.79,3.79,0,0,1-1.75-2.94A3,3,0,0,0,45,18.58c-2.73-1-6.09-.11-7.85.48C37.54,19,38.05,19,38.59,19Zm-18.3,5.29,1,.05-.25,1.38a3.34,3.34,0,0,0,1.82-2.8,3.38,3.38,0,0,1,2.58-3.12,17.09,17.09,0,0,1,6.7-.75c-1.76-.59-5.12-1.44-7.85-.48A3,3,0,0,0,22,21.35,3.79,3.79,0,0,1,20.29,24.29Z"/><path class="cls-7" d="M34.37,19.7l.44-.9c.1-.19,2.28-4.61,4.57-6,1.73-1.07,4.62-1.34,5.51-.77a.57.57,0,0,1,.31.55c0,.23-.1.94-3.64,2.2-2,.71-6.36,4.27-6.41,4.3Zm9.06-7.54a7.94,7.94,0,0,0-3.82,1c-1.56,1-3.13,3.52-3.91,4.91a30,30,0,0,1,5.71-3.72c3.12-1.11,3.34-1.72,3.35-1.83s0-.06-.1-.13A2.52,2.52,0,0,0,43.43,12.16Z"/><ellipse class="cls-8" cx="34.69" cy="18.94" rx="1.76" ry="0.56"/><path class="cls-7" d="M34.69,19.72c-1,0-2-.24-2-.78s1-.78,2-.78,2,.24,2,.78S35.67,19.72,34.69,19.72Zm-1.53-.78a2.36,2.36,0,0,0,1.53.34,2.38,2.38,0,0,0,1.53-.34,2.46,2.46,0,0,0-1.53-.34A2.43,2.43,0,0,0,33.16,18.94Z"/><text class="cls-9" transform="translate(7.3 54.28)">Hap<tspan class="cls-10" x="19.85" y="0">p</tspan><tspan x="25.69" y="0">y D</tspan><tspan class="cls-11" x="42.21" y="0">a</tspan><tspan x="48.3" y="0">y</tspan></text></g></g></svg>